<svg width="52" height="50" viewBox="0 0 52 50" fill="none" xmlns="http://www.w3.org/2000/svg">
<path d="M0 24.5136C0 12.9578 0 7.17987 3.77926 3.58993C7.55853 0 13.6412 0 25.8065 0C37.9717 0 44.0543 0 47.8337 3.58993C51.6129 7.17987 51.6129 12.9578 51.6129 24.5136C51.6129 36.0695 51.6129 41.8473 47.8337 45.4373C44.0543 49.0272 37.9717 49.0272 25.8065 49.0272C13.6412 49.0272 7.55853 49.0272 3.77926 45.4373C0 41.8473 0 36.0695 0 24.5136Z" fill="#243A5A"/>
<path d="M17.9327 21.7883C18.621 21.9635 19.0426 22.6475 18.6936 23.2377C18.3262 23.8588 17.8181 24.401 17.2 24.8217C16.2294 25.4824 15.0476 25.803 13.8561 25.7287C12.6646 25.6546 11.537 25.1903 10.6654 24.4149C9.79391 23.6396 9.23237 22.6011 9.07651 21.4765C8.92066 20.3519 9.1801 19.2108 9.81067 18.2476C10.4412 17.2844 11.4039 16.5587 12.5346 16.194C13.6653 15.8294 14.8942 15.8485 16.0118 16.2481C16.7234 16.5026 17.3619 16.9013 17.8861 17.4109C18.384 17.8952 18.1631 18.6596 17.5459 18.998L16.8914 19.357C15.8959 19.9031 16.0923 21.3198 17.2026 21.6025L17.9327 21.7883Z" fill="#2DF8BB"/>
<path d="M30.9677 31.8677C31.6804 31.8677 32.2711 32.4218 32.1296 33.0853C31.8794 34.257 31.2716 35.3431 30.3684 36.2011C29.1586 37.3504 27.5176 37.9961 25.8065 37.9961C24.0954 37.9961 22.4545 37.3504 21.2445 36.2011C20.3413 35.3431 19.7335 34.257 19.4835 33.0853C19.3418 32.4218 19.9325 31.8677 20.6452 31.8677H30.9677Z" fill="#2DF8BB"/>
<path d="M33.6804 21.7883C32.992 21.9635 32.5705 22.6475 32.9195 23.2377C33.2869 23.8588 33.795 24.401 34.4132 24.8217C35.3838 25.4824 36.5654 25.803 37.757 25.7287C38.9485 25.6546 40.0761 25.1903 40.9476 24.4149C41.8192 23.6396 42.3807 22.6011 42.5365 21.4765C42.6924 20.3519 42.433 19.2108 41.8025 18.2476C41.1719 17.2844 40.2092 16.5587 39.0785 16.194C37.9478 15.8294 36.719 15.8485 35.6014 16.2481C34.8897 16.5026 34.2512 16.9013 33.7271 17.4109C33.2292 17.8952 33.45 18.6596 34.0671 18.998L34.7217 19.357C35.7172 19.9031 35.5209 21.3198 34.4105 21.6025L33.6804 21.7883Z" fill="#2DF8BB"/>
</svg>
